<mxfile host="app.diagrams.net" modified="2022-08-29T13:32:09.487Z" agent="5.0 (Macintosh; Intel Mac OS X 10_15_7) AppleWebKit/537.36 (KHTML, like Gecko) Chrome/104.0.0.0 Safari/537.36" etag="Oz0jyqKxUZGCy4UZ0Bil" version="20.2.7" type="github">
  <diagram id="VOvVdlT0Q3RF6BztdASe" name="Page-1">
    <mxGraphModel dx="1234" dy="772" grid="1" gridSize="10" guides="1" tooltips="1" connect="1" arrows="1" fold="1" page="1" pageScale="1" pageWidth="827" pageHeight="1169" math="0" shadow="0">
      <root>
        <mxCell id="0" />
        <mxCell id="1" parent="0" />
        <mxCell id="i2mFMueT_FZ5VhDNLa2f-6" value="" style="edgeStyle=orthogonalEdgeStyle;rounded=0;orthogonalLoop=1;jettySize=auto;html=1;" parent="1" source="i2mFMueT_FZ5VhDNLa2f-2" target="i2mFMueT_FZ5VhDNLa2f-5" edge="1">
          <mxGeometry relative="1" as="geometry" />
        </mxCell>
        <mxCell id="i2mFMueT_FZ5VhDNLa2f-8" value="&lt;span style=&quot;font-family: &amp;quot;PingFang SC&amp;quot;, Arial, &amp;quot;Hiragino Sans GB&amp;quot;, STHeiti, &amp;quot;Microsoft YaHei&amp;quot;, &amp;quot;WenQuanYi Micro Hei&amp;quot;, sans-serif; font-size: 16px; font-variant-ligatures: no-common-ligatures; font-weight: 600; text-align: start;&quot;&gt;train&lt;/span&gt;" style="edgeLabel;html=1;align=center;verticalAlign=middle;resizable=0;points=[];" parent="i2mFMueT_FZ5VhDNLa2f-6" vertex="1" connectable="0">
          <mxGeometry x="-0.05" y="2" relative="1" as="geometry">
            <mxPoint x="-32" as="offset" />
          </mxGeometry>
        </mxCell>
        <mxCell id="i2mFMueT_FZ5VhDNLa2f-2" value="&lt;font style=&quot;font-size: 15px;&quot;&gt;FrontEnd&lt;/font&gt;" style="rounded=1;whiteSpace=wrap;html=1;fillColor=#fff2cc;strokeColor=#d6b656;" parent="1" vertex="1">
          <mxGeometry x="100" y="60" width="120" height="60" as="geometry" />
        </mxCell>
        <mxCell id="i2mFMueT_FZ5VhDNLa2f-10" value="" style="edgeStyle=orthogonalEdgeStyle;rounded=0;orthogonalLoop=1;jettySize=auto;html=1;startArrow=classic;startFill=1;" parent="1" source="i2mFMueT_FZ5VhDNLa2f-5" target="i2mFMueT_FZ5VhDNLa2f-9" edge="1">
          <mxGeometry relative="1" as="geometry" />
        </mxCell>
        <mxCell id="i2mFMueT_FZ5VhDNLa2f-30" style="edgeStyle=orthogonalEdgeStyle;rounded=0;orthogonalLoop=1;jettySize=auto;html=1;exitX=0.25;exitY=1;exitDx=0;exitDy=0;fontSize=15;entryX=0;entryY=0.629;entryDx=0;entryDy=0;entryPerimeter=0;" parent="1" source="i2mFMueT_FZ5VhDNLa2f-5" target="i2mFMueT_FZ5VhDNLa2f-12" edge="1">
          <mxGeometry relative="1" as="geometry">
            <mxPoint x="130" y="400" as="targetPoint" />
            <Array as="points">
              <mxPoint x="130" y="398" />
            </Array>
          </mxGeometry>
        </mxCell>
        <mxCell id="i2mFMueT_FZ5VhDNLa2f-5" value="&lt;font style=&quot;font-size: 15px;&quot;&gt;interface&lt;/font&gt;" style="whiteSpace=wrap;html=1;fillColor=#fff2cc;strokeColor=#d6b656;rounded=1;sketch=0;glass=0;" parent="1" vertex="1">
          <mxGeometry x="100" y="200" width="120" height="60" as="geometry" />
        </mxCell>
        <mxCell id="i2mFMueT_FZ5VhDNLa2f-9" value="sqlite" style="strokeWidth=2;html=1;shape=mxgraph.flowchart.database;whiteSpace=wrap;rounded=1;glass=0;sketch=0;fillColor=#d5e8d4;strokeColor=#82b366;" parent="1" vertex="1">
          <mxGeometry x="340" y="200" width="60" height="60" as="geometry" />
        </mxCell>
        <mxCell id="i2mFMueT_FZ5VhDNLa2f-23" style="edgeStyle=orthogonalEdgeStyle;rounded=0;orthogonalLoop=1;jettySize=auto;html=1;exitX=0;exitY=0.25;exitDx=0;exitDy=0;entryX=0.667;entryY=1.042;entryDx=0;entryDy=0;entryPerimeter=0;fontSize=19;" parent="1" source="i2mFMueT_FZ5VhDNLa2f-12" target="i2mFMueT_FZ5VhDNLa2f-5" edge="1">
          <mxGeometry relative="1" as="geometry" />
        </mxCell>
        <mxCell id="i2mFMueT_FZ5VhDNLa2f-12" value="" style="rounded=1;whiteSpace=wrap;html=1;absoluteArcSize=1;arcSize=14;strokeWidth=2;glass=0;sketch=0;fillColor=#dae8fc;strokeColor=#6c8ebf;" parent="1" vertex="1">
          <mxGeometry x="280" y="310" width="310" height="140" as="geometry" />
        </mxCell>
        <mxCell id="RkJliPeuyq-MbralgLHf-7" style="edgeStyle=orthogonalEdgeStyle;rounded=0;orthogonalLoop=1;jettySize=auto;html=1;entryX=0.5;entryY=1;entryDx=0;entryDy=0;entryPerimeter=0;" edge="1" parent="1" source="i2mFMueT_FZ5VhDNLa2f-13" target="i2mFMueT_FZ5VhDNLa2f-33">
          <mxGeometry relative="1" as="geometry" />
        </mxCell>
        <mxCell id="i2mFMueT_FZ5VhDNLa2f-13" value="&lt;font style=&quot;font-size: 15px;&quot;&gt;webshell&lt;/font&gt;" style="rounded=1;whiteSpace=wrap;html=1;absoluteArcSize=1;arcSize=14;strokeWidth=2;glass=0;sketch=0;fillColor=#dae8fc;strokeColor=#6c8ebf;" parent="1" vertex="1">
          <mxGeometry x="160" y="515" width="200" height="65.5" as="geometry" />
        </mxCell>
        <mxCell id="RkJliPeuyq-MbralgLHf-3" style="edgeStyle=orthogonalEdgeStyle;rounded=0;orthogonalLoop=1;jettySize=auto;html=1;exitX=0.5;exitY=1;exitDx=0;exitDy=0;exitPerimeter=0;entryX=0.85;entryY=-0.015;entryDx=0;entryDy=0;entryPerimeter=0;" edge="1" parent="1" source="i2mFMueT_FZ5VhDNLa2f-14" target="i2mFMueT_FZ5VhDNLa2f-13">
          <mxGeometry relative="1" as="geometry" />
        </mxCell>
        <mxCell id="RkJliPeuyq-MbralgLHf-8" style="edgeStyle=orthogonalEdgeStyle;rounded=0;orthogonalLoop=1;jettySize=auto;html=1;exitX=0.145;exitY=0.855;exitDx=0;exitDy=0;exitPerimeter=0;" edge="1" parent="1" source="i2mFMueT_FZ5VhDNLa2f-14" target="i2mFMueT_FZ5VhDNLa2f-33">
          <mxGeometry relative="1" as="geometry">
            <Array as="points">
              <mxPoint x="309" y="460" />
            </Array>
          </mxGeometry>
        </mxCell>
        <mxCell id="i2mFMueT_FZ5VhDNLa2f-14" value="&lt;font style=&quot;font-size: 15px;&quot;&gt;train_1&lt;/font&gt;" style="strokeWidth=2;html=1;shape=mxgraph.flowchart.start_2;whiteSpace=wrap;rounded=1;glass=0;sketch=0;" parent="1" vertex="1">
          <mxGeometry x="300" y="350" width="60" height="60" as="geometry" />
        </mxCell>
        <mxCell id="i2mFMueT_FZ5VhDNLa2f-17" value="&lt;font style=&quot;font-size: 15px;&quot;&gt;train_2&lt;/font&gt;" style="strokeWidth=2;html=1;shape=mxgraph.flowchart.start_2;whiteSpace=wrap;rounded=1;glass=0;sketch=0;" parent="1" vertex="1">
          <mxGeometry x="400" y="350" width="60" height="60" as="geometry" />
        </mxCell>
        <mxCell id="i2mFMueT_FZ5VhDNLa2f-18" value="&lt;font style=&quot;font-size: 15px;&quot;&gt;train_n&lt;/font&gt;" style="strokeWidth=2;html=1;shape=mxgraph.flowchart.start_2;whiteSpace=wrap;rounded=1;glass=0;sketch=0;" parent="1" vertex="1">
          <mxGeometry x="520" y="350" width="60" height="60" as="geometry" />
        </mxCell>
        <mxCell id="i2mFMueT_FZ5VhDNLa2f-20" value="&lt;b&gt;&lt;font style=&quot;font-size: 19px;&quot;&gt;......&lt;/font&gt;&lt;/b&gt;" style="text;html=1;align=center;verticalAlign=middle;resizable=0;points=[];autosize=1;strokeColor=none;fillColor=none;" parent="1" vertex="1">
          <mxGeometry x="460" y="358" width="60" height="40" as="geometry" />
        </mxCell>
        <mxCell id="i2mFMueT_FZ5VhDNLa2f-24" value="&lt;font style=&quot;font-size: 15px;&quot;&gt;feedback&lt;br&gt;train status&lt;/font&gt;" style="text;html=1;align=center;verticalAlign=middle;resizable=0;points=[];autosize=1;strokeColor=none;fillColor=none;fontSize=19;" parent="1" vertex="1">
          <mxGeometry x="180" y="280" width="100" height="60" as="geometry" />
        </mxCell>
        <mxCell id="i2mFMueT_FZ5VhDNLa2f-25" value="&lt;font style=&quot;font-size: 15px;&quot;&gt;train task queue&lt;/font&gt;" style="text;html=1;resizable=0;autosize=1;align=center;verticalAlign=middle;points=[];fillColor=none;strokeColor=none;rounded=0;glass=0;sketch=0;fontSize=12;" parent="1" vertex="1">
          <mxGeometry x="369" y="420" width="130" height="30" as="geometry" />
        </mxCell>
        <mxCell id="i2mFMueT_FZ5VhDNLa2f-26" value="&lt;font style=&quot;font-size: 15px;&quot;&gt;ml_online_svc&lt;/font&gt;" style="text;html=1;resizable=0;autosize=1;align=center;verticalAlign=middle;points=[];fillColor=none;strokeColor=none;rounded=0;glass=0;sketch=0;fontSize=12;" parent="1" vertex="1">
          <mxGeometry x="470" y="310" width="120" height="30" as="geometry" />
        </mxCell>
        <mxCell id="i2mFMueT_FZ5VhDNLa2f-28" value="train&lt;br&gt;info" style="text;html=1;align=center;verticalAlign=middle;resizable=0;points=[];autosize=1;strokeColor=none;fillColor=none;fontSize=15;" parent="1" vertex="1">
          <mxGeometry x="330" y="450" width="50" height="50" as="geometry" />
        </mxCell>
        <mxCell id="i2mFMueT_FZ5VhDNLa2f-31" value="train task&lt;br&gt;metadata" style="text;html=1;align=center;verticalAlign=middle;resizable=0;points=[];autosize=1;strokeColor=none;fillColor=none;fontSize=15;" parent="1" vertex="1">
          <mxGeometry x="125" y="353" width="90" height="50" as="geometry" />
        </mxCell>
        <mxCell id="i2mFMueT_FZ5VhDNLa2f-32" value="Celery" style="text;html=1;resizable=0;autosize=1;align=center;verticalAlign=middle;points=[];fillColor=none;strokeColor=none;rounded=0;glass=0;sketch=0;fontSize=15;" parent="1" vertex="1">
          <mxGeometry x="320" y="310" width="70" height="30" as="geometry" />
        </mxCell>
        <mxCell id="i2mFMueT_FZ5VhDNLa2f-33" value="MinIO" style="strokeWidth=2;html=1;shape=mxgraph.flowchart.database;whiteSpace=wrap;rounded=1;glass=0;sketch=0;fontSize=15;fillColor=#1ba1e2;fontColor=#ffffff;strokeColor=#006EAF;" parent="1" vertex="1">
          <mxGeometry x="70" y="430" width="60" height="60" as="geometry" />
        </mxCell>
        <mxCell id="vcRq-oVc50_kOB_HqI5c-21" value="Read&lt;br&gt;dataset" style="text;html=1;align=center;verticalAlign=middle;resizable=0;points=[];autosize=1;strokeColor=none;fillColor=none;fontSize=15;" parent="1" vertex="1">
          <mxGeometry x="90" y="500" width="70" height="50" as="geometry" />
        </mxCell>
        <mxCell id="vcRq-oVc50_kOB_HqI5c-22" value="Write&lt;br&gt;model" style="text;html=1;align=center;verticalAlign=middle;resizable=0;points=[];autosize=1;strokeColor=none;fillColor=none;fontSize=15;" parent="1" vertex="1">
          <mxGeometry x="180" y="410" width="60" height="50" as="geometry" />
        </mxCell>
        <mxCell id="LVyH0x9JES-EX5dVkCXs-1" value="&lt;span style=&quot;font-size: 15px;&quot;&gt;read/write&lt;/span&gt;&lt;br style=&quot;font-size: 15px;&quot;&gt;&lt;span style=&quot;font-size: 15px;&quot;&gt;traning log&lt;/span&gt;&lt;br style=&quot;font-size: 15px;&quot;&gt;&lt;div style=&quot;margin: -8px 0px 10px; padding: 0px; display: flex; font-family: &amp;quot;PingFang SC&amp;quot;, Arial, &amp;quot;Hiragino Sans GB&amp;quot;, STHeiti, &amp;quot;Microsoft YaHei&amp;quot;, &amp;quot;WenQuanYi Micro Hei&amp;quot;, sans-serif; font-variant-ligatures: no-common-ligatures; text-align: start; background-color: rgb(255, 255, 255);&quot; class=&quot;Trans__tool__3zP13&quot;&gt;&lt;/div&gt;" style="text;html=1;align=center;verticalAlign=middle;resizable=0;points=[];autosize=1;strokeColor=none;fillColor=none;" parent="1" vertex="1">
          <mxGeometry x="230" y="180" width="90" height="50" as="geometry" />
        </mxCell>
      </root>
    </mxGraphModel>
  </diagram>
</mxfile>
